<?xml version="1.0" encoding="UTF-8"?>
<svg id="Capa_2" data-name="Capa 2" xmlns="http://www.w3.org/2000/svg" viewBox="0 0 600.38 600.38">
  <defs>
    <style>
      .cls-1 {
        fill: #43c233;
      }

      .cls-2 {
        fill: #636571;
      }

      .cls-3 {
        fill: #ffc411;
      }

      .cls-4 {
        fill: #9e1f63;
      }

      .cls-5 {
        fill: #f7f7f7;
      }
    </style>
  </defs>
  <g id="Capa_1-2" data-name="Capa 1">
    <rect class="cls-5" width="600.38" height="600.38"/>
    <ellipse class="cls-4" cx="300.19" cy="429.06" rx="112.89" ry="19.69"/>
    <path class="cls-3" d="M395.36,154.82c2.11,5.9,4.68,15.65,5.1,18.71,1.01,11.51,2.08,20.14-1.33,10.35s-5.97,22.45-2.54,21.03c9.26-3.84,9.08-12.91,9.07-22.68,2.38-50.49-34.72-89.52-55.38-96.03-122.82-43.06-191.46,80.9-149.21,166.97,13.51,31.92,81.53,135.13,105.88,175.88,33.53-62.95,60.81-115.72,86.61-167.88,2.91-5.88,3.31-18.25-1.64-24.9-6.39-8.59-20.56-7.3-27.32-.33-10.41,10.75-18.85,45.66-57.37,117.48-30.43-43.89-33.78-46.83-48.32-68.28-9.39-13.84-38.22-11.6-46.66-31.76-32.22-108.79,63.11-206.09,164.13-132.29"/>
    <path class="cls-4" d="M281.44,340.24c8.24-9.81-3.46-28.16-16.63-47.01-23.05-32.98-45.53-71.59-39.07-119.57,4.89-36.32,39.17-48.04,30.12-69.46-8.1-15.06-22.57-9.92-39.66,9.68-39.55,45.38-30.88,105.57-16.65,136.14,10.81,23.24,12.98,26.08,35.77,64.44,19.19,32.3,34.22,39.95,46.12,25.78Z"/>
    <path class="cls-1" d="M368.33,150.06c6.57,17.66,6.03,27.13,8.13,41.76,1.56,10.87,13.59,17.25,24.06,12.24,8.91-4.27,11.16-10.64,11.16-28.49,0-99.52-131.28-139.55-197.21-59.35-18.43,19.38-21.88,47.77,2.61,48.18,8.01-.96,15.84-11.9,23.02-22.46,33.55-49.36,108.32-45.35,128.22,8.13Z"/>
    <path class="cls-2" d="M313.79,227.67c1.66-.03,8.94-2.96,9.66-4.14,6.89-11.25,7.01-23.93.16-40.09-1.5-3.54-4.33-8.79-9.09-14.29-16.34-18.89-34.56-17.01-45.97-17.01,10.35,6.19,12.83,7.04,15.17,12.9,1.19,2.98,1.54,4.45-.23,16.12-2.31,15.3-2.39,18.08.06,26.48,3.12,10.7,13.92,17.99,24.94,19.67,1.77.27,3.55.4,5.3.37Z"/>
    <path class="cls-2" d="M408.87,403.58l-.64-2.73c-15.41-36.24-30.59-69.28-46.67-110.3-1.79-4.58-6.28-12.9-9.1-17.91,0,0,0,0,0,0v-.02c-.32-.55-.62-1.07-.88-1.53h-.04s-24.74-41.49-24.74-41.49l-10.7,4.5,12.16,46.57c.65,3.07,2.31,9.46,4.98,14.91,2.45,5.01,2.94,5.11,3.56,6.16,7.04,11.86,22.8,36.19,28.42,46.14,0,0,9.06,16.04,33.56,56.23.06.11,1.06,1.72,2.86,3.31,1,.88,1.52,1.12,1.85,1.24.29.11,2.34.82,3.98-.36,1.35-.98,1.93-2.87,1.38-4.7Z"/>
    <g>
      <path class="cls-2" d="M203.52,529.1l-13.25-45.45h6.62l10.84,37.4,11.51-37.4h6.36l11.51,37.41,10.83-37.41h6.27l-13.24,45.45h-7.31l-11.27-36.41-11.27,36.41h-7.59Z"/>
      <path class="cls-2" d="M284.68,496.63h5.89v32.47h-5.89v-5.58c-2.93,4.29-7.2,6.43-12.79,6.43-4.74,0-8.78-1.66-12.11-4.97-3.34-3.31-5.01-7.35-5.01-12.11s1.67-8.8,5.01-12.11c3.34-3.31,7.38-4.97,12.11-4.97,5.59,0,9.86,2.14,12.79,6.43v-5.58ZM272.63,524.49c3.43,0,6.29-1.11,8.6-3.34,2.3-2.23,3.45-4.99,3.45-8.28s-1.15-6.05-3.45-8.28c-2.3-2.23-5.17-3.34-8.6-3.34s-6.23,1.12-8.53,3.34c-2.3,2.23-3.45,4.99-3.45,8.28s1.15,6.05,3.45,8.28c2.3,2.23,5.14,3.34,8.53,3.34Z"/>
      <path class="cls-2" d="M317.91,502.09h-9v17.6c0,1.6.33,2.74.98,3.41.65.67,1.66,1.02,3.01,1.04,1.35.02,3.02,0,5.01-.1v5.06c-5.14.65-8.91.25-11.3-1.2s-3.59-4.19-3.59-8.21v-17.6h-6.7v-5.45h6.7v-7.4l5.89-1.69v9.09h9v5.45Z"/>
      <path class="cls-2" d="M351.75,525.01c-3.47,3.29-7.69,4.93-12.66,4.93s-9.17-1.64-12.62-4.93c-3.45-3.29-5.18-7.34-5.18-12.14s1.73-8.85,5.18-12.14c3.45-3.29,7.66-4.93,12.62-4.93s9.18,1.65,12.66,4.93c3.47,3.29,5.21,7.34,5.21,12.14s-1.74,8.85-5.21,12.14ZM339.1,524.42c3.38,0,6.23-1.1,8.53-3.31,2.3-2.21,3.45-4.96,3.45-8.25s-1.15-6.04-3.45-8.25c-2.3-2.21-5.14-3.31-8.53-3.31s-6.16,1.1-8.46,3.31c-2.3,2.21-3.45,4.96-3.45,8.25s1.15,6.04,3.45,8.25c2.3,2.21,5.12,3.31,8.46,3.31Z"/>
      <path class="cls-2" d="M387.28,496.63h5.89v32.47h-5.89v-4.67c-2.39,3.68-6.05,5.52-10.96,5.52-3.97,0-7.15-1.2-9.54-3.6s-3.59-5.66-3.59-9.77v-19.93h5.89v19.61c0,2.64.75,4.69,2.23,6.14,1.49,1.45,3.54,2.18,6.16,2.18,2.93,0,5.3-.88,7.11-2.63,1.8-1.75,2.71-4.45,2.71-8.08v-17.21Z"/>
      <path class="cls-2" d="M402.11,529.1v-47.4h5.89v47.4h-5.89Z"/>
    </g>
  </g>
</svg>